<svg version="1" xmlns="http://www.w3.org/2000/svg" width="666.667" height="666.667" viewBox="0 0 500.000000 500.000000"><path d="M227 30.1c-47.1 4.8-92.8 26.7-127 60.9-74.6 74.6-82.8 191.9-19.1 276.3 57.2 76 159.3 104.1 247.5 68.1 94.6-38.6 147.9-138.8 127-238.8C440 123 386.1 63 314.4 39.5c-26.9-8.9-58.7-12.3-87.4-9.4zm-19.5 124.2c17.3 3.9 28.4 9.3 43.2 21.4 1.2 1 .7 2.3-3.4 8.5-6 9.1-8.3 9.7-17.1 4.5-17.8-10.8-26.5-13.2-47.2-13.1-18 0-23.9 1.2-36.5 7.7-16.3 8.3-28.3 24.1-33.6 44.2-3.2 11.6-3.1 37.5 0 49 6.1 22.7 18.6 38.2 37.6 47 11.1 5.1 16.2 6 34 5.9 17.8-.1 25.1-1.6 38.3-7.4l7.2-3.3V275h-16.4c-20.1 0-19.6.3-19.6-11.6V255h60v75.5l-6.7 4.2c-17 10.4-40.5 16.3-66 16.3-40.1 0-72.2-19.1-87.8-52.3-7.4-15.6-11.3-36.4-10.1-53.7 3.5-51.1 33.1-84.3 82.2-92 8.4-1.3 33.6-.5 41.9 1.3zM415 165v11h-94v68h80v21h-80v84h-26V154h120v11z"/></svg>